<mxfile host="app.diagrams.net" modified="2021-10-10T08:03:07.792Z" agent="5.0 (Windows NT 10.0; Win64; x64) AppleWebKit/537.36 (KHTML, like Gecko) Chrome/94.0.4606.71 Safari/537.36 Edg/94.0.992.38" etag="yWjYQ_nQra56zp8sq2iG" version="15.4.1" type="github">
  <diagram id="l1GQ3Wr321EwXYp8gvPB" name="Page-1">
    <mxGraphModel dx="1185" dy="662" grid="1" gridSize="10" guides="1" tooltips="1" connect="1" arrows="1" fold="1" page="1" pageScale="1" pageWidth="850" pageHeight="1100" math="0" shadow="0">
      <root>
        <mxCell id="0" />
        <mxCell id="1" parent="0" />
        <mxCell id="G8pWZpXp4zpSkY0SeKFe-1" value="" style="swimlane;startSize=0;" vertex="1" parent="1">
          <mxGeometry x="161" y="96" width="520" height="530" as="geometry" />
        </mxCell>
        <mxCell id="G8pWZpXp4zpSkY0SeKFe-21" style="edgeStyle=none;rounded=0;orthogonalLoop=1;jettySize=auto;html=1;exitX=1;exitY=0.5;exitDx=0;exitDy=0;entryX=0;entryY=0.5;entryDx=0;entryDy=0;dashed=1;" edge="1" parent="G8pWZpXp4zpSkY0SeKFe-1" source="G8pWZpXp4zpSkY0SeKFe-3" target="G8pWZpXp4zpSkY0SeKFe-10">
          <mxGeometry relative="1" as="geometry" />
        </mxCell>
        <mxCell id="G8pWZpXp4zpSkY0SeKFe-22" value="เก็บข้อมูลผู้ใช้" style="edgeLabel;html=1;align=center;verticalAlign=middle;resizable=0;points=[];" vertex="1" connectable="0" parent="G8pWZpXp4zpSkY0SeKFe-21">
          <mxGeometry x="-0.4" y="-1" relative="1" as="geometry">
            <mxPoint x="10" y="9" as="offset" />
          </mxGeometry>
        </mxCell>
        <mxCell id="G8pWZpXp4zpSkY0SeKFe-3" value="สแกน QR" style="ellipse;whiteSpace=wrap;html=1;" vertex="1" parent="G8pWZpXp4zpSkY0SeKFe-1">
          <mxGeometry x="105" y="260" width="120" height="80" as="geometry" />
        </mxCell>
        <mxCell id="G8pWZpXp4zpSkY0SeKFe-10" value="ฐานข้อมูล" style="ellipse;whiteSpace=wrap;html=1;" vertex="1" parent="G8pWZpXp4zpSkY0SeKFe-1">
          <mxGeometry x="295" y="260" width="120" height="80" as="geometry" />
        </mxCell>
        <mxCell id="G8pWZpXp4zpSkY0SeKFe-11" value="ดูข้อมูลผ่าน Dashboard" style="ellipse;whiteSpace=wrap;html=1;" vertex="1" parent="G8pWZpXp4zpSkY0SeKFe-1">
          <mxGeometry x="295" y="400" width="120" height="80" as="geometry" />
        </mxCell>
        <mxCell id="G8pWZpXp4zpSkY0SeKFe-23" style="edgeStyle=none;rounded=0;orthogonalLoop=1;jettySize=auto;html=1;exitX=0.5;exitY=1;exitDx=0;exitDy=0;entryX=0.5;entryY=0;entryDx=0;entryDy=0;dashed=1;" edge="1" parent="G8pWZpXp4zpSkY0SeKFe-1" source="G8pWZpXp4zpSkY0SeKFe-10" target="G8pWZpXp4zpSkY0SeKFe-11">
          <mxGeometry relative="1" as="geometry">
            <mxPoint x="345" y="370" as="sourcePoint" />
            <mxPoint x="445" y="370" as="targetPoint" />
          </mxGeometry>
        </mxCell>
        <mxCell id="G8pWZpXp4zpSkY0SeKFe-24" value="ดึงข้อมูลผู้ใช้" style="edgeLabel;html=1;align=center;verticalAlign=middle;resizable=0;points=[];" vertex="1" connectable="0" parent="G8pWZpXp4zpSkY0SeKFe-23">
          <mxGeometry x="-0.4" y="-1" relative="1" as="geometry">
            <mxPoint x="10" y="9" as="offset" />
          </mxGeometry>
        </mxCell>
        <mxCell id="G8pWZpXp4zpSkY0SeKFe-29" value="&amp;lt;&amp;lt;ต้องเคยเข้าสู่ระบบก่อน&amp;gt;&amp;gt;" style="text;html=1;strokeColor=none;fillColor=none;align=center;verticalAlign=middle;whiteSpace=wrap;rounded=0;" vertex="1" parent="G8pWZpXp4zpSkY0SeKFe-1">
          <mxGeometry y="400" width="160" height="30" as="geometry" />
        </mxCell>
        <mxCell id="G8pWZpXp4zpSkY0SeKFe-39" style="edgeStyle=orthogonalEdgeStyle;rounded=0;orthogonalLoop=1;jettySize=auto;html=1;exitX=1;exitY=0.5;exitDx=0;exitDy=0;entryX=0.5;entryY=0;entryDx=0;entryDy=0;endArrow=classic;endFill=1;dashed=1;" edge="1" parent="G8pWZpXp4zpSkY0SeKFe-1" source="G8pWZpXp4zpSkY0SeKFe-31" target="G8pWZpXp4zpSkY0SeKFe-10">
          <mxGeometry relative="1" as="geometry" />
        </mxCell>
        <mxCell id="G8pWZpXp4zpSkY0SeKFe-31" value="สมัครสมาชิก" style="ellipse;whiteSpace=wrap;html=1;" vertex="1" parent="G8pWZpXp4zpSkY0SeKFe-1">
          <mxGeometry x="105" y="20" width="120" height="80" as="geometry" />
        </mxCell>
        <mxCell id="G8pWZpXp4zpSkY0SeKFe-38" style="edgeStyle=none;rounded=0;orthogonalLoop=1;jettySize=auto;html=1;exitX=0.5;exitY=1;exitDx=0;exitDy=0;entryX=0.5;entryY=0;entryDx=0;entryDy=0;endArrow=classic;endFill=1;" edge="1" parent="G8pWZpXp4zpSkY0SeKFe-1" source="G8pWZpXp4zpSkY0SeKFe-34" target="G8pWZpXp4zpSkY0SeKFe-3">
          <mxGeometry relative="1" as="geometry" />
        </mxCell>
        <mxCell id="G8pWZpXp4zpSkY0SeKFe-34" value="เข้าสู่ระบบ" style="ellipse;whiteSpace=wrap;html=1;" vertex="1" parent="G8pWZpXp4zpSkY0SeKFe-1">
          <mxGeometry x="105" y="140" width="120" height="80" as="geometry" />
        </mxCell>
        <mxCell id="G8pWZpXp4zpSkY0SeKFe-40" value="เก็บข้อมูลผู้ใช้" style="edgeLabel;html=1;align=center;verticalAlign=middle;resizable=0;points=[];" vertex="1" connectable="0" parent="G8pWZpXp4zpSkY0SeKFe-1">
          <mxGeometry x="355.0023809523818" y="140" as="geometry" />
        </mxCell>
        <mxCell id="G8pWZpXp4zpSkY0SeKFe-18" style="rounded=0;orthogonalLoop=1;jettySize=auto;html=1;exitX=1;exitY=0.3333333333333333;exitDx=0;exitDy=0;exitPerimeter=0;entryX=0;entryY=0.5;entryDx=0;entryDy=0;" edge="1" parent="1" source="G8pWZpXp4zpSkY0SeKFe-2" target="G8pWZpXp4zpSkY0SeKFe-3">
          <mxGeometry relative="1" as="geometry" />
        </mxCell>
        <mxCell id="G8pWZpXp4zpSkY0SeKFe-35" style="edgeStyle=none;rounded=0;orthogonalLoop=1;jettySize=auto;html=1;exitX=0.75;exitY=0.1;exitDx=0;exitDy=0;exitPerimeter=0;entryX=0;entryY=0.5;entryDx=0;entryDy=0;endArrow=classic;endFill=1;" edge="1" parent="1" source="G8pWZpXp4zpSkY0SeKFe-2" target="G8pWZpXp4zpSkY0SeKFe-34">
          <mxGeometry relative="1" as="geometry" />
        </mxCell>
        <mxCell id="G8pWZpXp4zpSkY0SeKFe-37" style="edgeStyle=none;rounded=0;orthogonalLoop=1;jettySize=auto;html=1;exitX=0.5;exitY=0;exitDx=0;exitDy=0;exitPerimeter=0;entryX=-0.008;entryY=0.588;entryDx=0;entryDy=0;entryPerimeter=0;endArrow=classic;endFill=1;" edge="1" parent="1" source="G8pWZpXp4zpSkY0SeKFe-2" target="G8pWZpXp4zpSkY0SeKFe-31">
          <mxGeometry relative="1" as="geometry" />
        </mxCell>
        <mxCell id="G8pWZpXp4zpSkY0SeKFe-2" value="client" style="shape=umlActor;verticalLabelPosition=bottom;verticalAlign=top;html=1;outlineConnect=0;" vertex="1" parent="1">
          <mxGeometry x="80" y="290" width="30" height="60" as="geometry" />
        </mxCell>
        <mxCell id="G8pWZpXp4zpSkY0SeKFe-20" style="edgeStyle=none;rounded=0;orthogonalLoop=1;jettySize=auto;html=1;exitX=0;exitY=0.3333333333333333;exitDx=0;exitDy=0;exitPerimeter=0;entryX=1;entryY=0.5;entryDx=0;entryDy=0;" edge="1" parent="1" source="G8pWZpXp4zpSkY0SeKFe-16" target="G8pWZpXp4zpSkY0SeKFe-11">
          <mxGeometry relative="1" as="geometry" />
        </mxCell>
        <mxCell id="G8pWZpXp4zpSkY0SeKFe-16" value="Data Analysis" style="shape=umlActor;verticalLabelPosition=bottom;verticalAlign=top;html=1;outlineConnect=0;" vertex="1" parent="1">
          <mxGeometry x="740" y="429" width="30" height="60" as="geometry" />
        </mxCell>
        <mxCell id="G8pWZpXp4zpSkY0SeKFe-26" value="เก็บข้อมูลผู้ใช้&lt;br&gt;&lt;span style=&quot;white-space: pre&quot;&gt;	&lt;/span&gt;- ชื่อผู้ใช้&lt;br&gt;&lt;span style=&quot;white-space: pre&quot;&gt;	&lt;/span&gt;- เวลาที่ขึ้นรถ&lt;br&gt;&lt;span style=&quot;white-space: pre&quot;&gt;	&lt;/span&gt;- จำนวนครั้งที่ขึ้นรถ&lt;br&gt;&lt;span style=&quot;white-space: pre&quot;&gt;	&lt;/span&gt;- หมายเลขรถที่ขึ้น" style="text;html=1;strokeColor=none;fillColor=none;align=left;verticalAlign=middle;whiteSpace=wrap;rounded=0;" vertex="1" parent="1">
          <mxGeometry x="161" y="660" width="150" height="30" as="geometry" />
        </mxCell>
        <mxCell id="G8pWZpXp4zpSkY0SeKFe-27" value="ดึงข้อมูลผู้ใช้&lt;br&gt;แบ่งเป็นแต่ละวัน เดือน ปีประกอบด้วย&lt;br&gt;&lt;span&gt;	&lt;/span&gt;&lt;span style=&quot;white-space: pre&quot;&gt;	&lt;/span&gt;- ชื่อผู้ใช้&lt;br&gt;&lt;span&gt;	&lt;/span&gt;&lt;span style=&quot;white-space: pre&quot;&gt;	&lt;/span&gt;- เวลาที่ขึ้นรถ&lt;br&gt;&lt;span&gt;	&lt;/span&gt;&lt;span style=&quot;white-space: pre&quot;&gt;	&lt;/span&gt;- จำนวนครั้งที่ขึ้นรถ&lt;br&gt;&lt;span style=&quot;white-space: pre&quot;&gt;	&lt;/span&gt;- หมายเลขรถที่ขึ้น&lt;br&gt;&lt;span&gt;	&lt;/span&gt;" style="text;html=1;strokeColor=none;fillColor=none;align=left;verticalAlign=middle;whiteSpace=wrap;rounded=0;" vertex="1" parent="1">
          <mxGeometry x="470" y="670" width="150" height="30" as="geometry" />
        </mxCell>
        <mxCell id="G8pWZpXp4zpSkY0SeKFe-30" style="edgeStyle=none;rounded=0;orthogonalLoop=1;jettySize=auto;html=1;exitX=0.5;exitY=0;exitDx=0;exitDy=0;dashed=1;endArrow=none;endFill=0;" edge="1" parent="1" source="G8pWZpXp4zpSkY0SeKFe-29">
          <mxGeometry relative="1" as="geometry">
            <mxPoint x="240" y="380" as="targetPoint" />
            <mxPoint x="240" y="410" as="sourcePoint" />
          </mxGeometry>
        </mxCell>
        <mxCell id="G8pWZpXp4zpSkY0SeKFe-41" value="&lt;b&gt;รถด่วนแสนอรอ่ย&lt;/b&gt;" style="text;html=1;strokeColor=none;fillColor=none;align=center;verticalAlign=middle;whiteSpace=wrap;rounded=0;" vertex="1" parent="1">
          <mxGeometry x="365" y="60" width="120" height="30" as="geometry" />
        </mxCell>
      </root>
    </mxGraphModel>
  </diagram>
</mxfile>
